# xmcd CD database file
#
# Track frame offsets:
#	150
#	14295
#	28455
#	42387
#	60272
#	77912
#	92277
#	105980
#	123865
#	138527
#	155189
#	173187
#	191016
#
# Disc length: 2758 seconds
#
# Revision: 0
# Processed by: cddbd v1.5.2PL0 Copyright (c) Steve Scherf et al.
# Submitted via: CDex 1.51
#
DISCID=a60ac40d
DTITLE=Bowling For Soup - Fishin' For Woos [Bonus Track]
DYEAR=2011
DGENRE=Pop-Punk
TTITLE0=Let's Pretend We're Not In Love
TTITLE1=Girls In America
TTITLE2=S-S-S-Saturday
TTITLE3=What About Us
TTITLE4=Here's Your Freakin' Song
TTITLE5=This Ain't My Day
TTITLE6=Smiley Face (It's All Good)
TTITLE7=Turbulence
TTITLE8=I've Never Done Anything Like This
TTITLE9=Friends Chicks Guitars
TTITLE10=Guard My Heart (2010)
TTITLE11=Graduation Trip
TTITLE12=Evil All Over The World
EXTD=YEAR: 2011
EXTT0=
EXTT1=
EXTT2=
EXTT3=
EXTT4=
EXTT5=
EXTT6=
EXTT7=
EXTT8=
EXTT9=
EXTT10=
EXTT11=
EXTT12=
PLAYORDER=
